<svg width="800" height="800" xmlns="http://www.w3.org/2000/svg">
  <g fill="none" stroke="#ffffff" stroke-width="0.8" opacity="0.09">
    <!-- Peak cluster 1 - upper left -->
    <path d="M180 160 Q200 140 230 145 Q260 150 270 170 Q280 195 265 215 Q245 240 215 235 Q185 228 170 205 Q155 180 180 160Z"/>
    <path d="M165 145 Q195 115 240 120 Q285 128 300 160 Q310 195 290 230 Q265 260 225 258 Q180 252 158 218 Q140 185 165 145Z"/>
    <path d="M145 128 Q185 85 250 95 Q315 108 335 155 Q348 205 320 250 Q285 290 235 285 Q175 278 148 235 Q125 190 145 128Z"/>
    <path d="M125 110 Q175 55 260 68 Q345 85 370 148 Q388 218 350 275 Q305 328 240 320 Q165 310 132 255 Q105 200 125 110Z"/>

    <!-- Peak cluster 2 - center right -->
    <path d="M560 340 Q580 320 610 328 Q635 338 640 365 Q642 390 620 405 Q595 418 572 400 Q550 380 560 340Z"/>
    <path d="M540 315 Q570 285 615 295 Q658 310 668 355 Q675 400 645 428 Q612 455 575 440 Q535 420 528 378 Q520 340 540 315Z"/>
    <path d="M515 290 Q555 248 618 260 Q680 278 698 340 Q712 405 672 450 Q628 492 575 472 Q518 450 502 390 Q488 335 515 290Z"/>
    <path d="M490 268 Q540 212 620 228 Q702 248 725 325 Q745 410 695 468 Q640 525 572 502 Q498 478 475 405 Q455 340 490 268Z"/>
    <path d="M465 245 Q525 178 622 198 Q722 222 752 312 Q778 418 718 488 Q652 558 570 530 Q480 500 450 418 Q425 345 465 245Z"/>

    <!-- Peak cluster 3 - lower left -->
    <path d="M150 550 Q175 530 205 540 Q230 552 232 580 Q232 608 208 622 Q180 632 158 612 Q138 590 150 550Z"/>
    <path d="M128 525 Q165 495 210 508 Q255 525 262 568 Q268 615 235 645 Q198 670 158 650 Q118 628 112 580 Q108 545 128 525Z"/>
    <path d="M105 498 Q152 455 215 472 Q280 495 292 555 Q302 622 260 665 Q212 708 155 685 Q95 658 82 592 Q72 535 105 498Z"/>
    <path d="M82 472 Q140 418 220 438 Q305 465 322 542 Q338 628 285 685 Q225 742 150 715 Q72 685 52 605 Q38 532 82 472Z"/>

    <!-- Ridge line 1 - flowing across upper portion -->
    <path d="M0 250 Q80 235 160 260 Q240 285 320 265 Q400 245 480 270 Q560 295 640 275 Q720 255 800 268"/>
    <path d="M0 280 Q80 268 160 295 Q240 320 320 298 Q400 278 480 305 Q560 330 640 308 Q720 288 800 300"/>

    <!-- Ridge line 2 - flowing across middle -->
    <path d="M0 430 Q100 415 200 445 Q300 475 400 450 Q500 425 600 455 Q700 480 800 462"/>
    <path d="M0 460 Q100 448 200 478 Q300 508 400 482 Q500 458 600 488 Q700 512 800 495"/>

    <!-- Ridge line 3 - flowing across lower portion -->
    <path d="M0 650 Q120 635 240 660 Q360 688 480 665 Q600 642 720 668 Q760 678 800 672"/>
    <path d="M0 680 Q120 668 240 695 Q360 720 480 698 Q600 675 720 700 Q760 710 800 705"/>

    <!-- Small peak - upper right -->
    <path d="M680 100 Q700 85 720 92 Q738 102 735 122 Q730 142 710 148 Q688 150 678 132 Q670 115 680 100Z"/>
    <path d="M665 78 Q695 55 728 68 Q758 82 755 115 Q750 150 722 162 Q690 172 668 148 Q648 125 665 78Z"/>
    <path d="M648 58 Q688 28 735 45 Q778 65 775 108 Q770 158 735 175 Q695 192 660 162 Q628 135 648 58Z"/>

    <!-- Small peak - center left -->
    <path d="M80 350 Q100 338 118 348 Q132 362 125 382 Q115 398 95 398 Q75 395 68 375 Q64 358 80 350Z"/>
    <path d="M62 330 Q92 310 125 325 Q152 345 145 378 Q135 412 105 418 Q72 420 55 395 Q42 368 62 330Z"/>

    <!-- Scattered contour lines for texture -->
    <path d="M350 80 Q380 65 410 78 Q435 95 428 120 Q418 145 390 148 Q360 148 348 125 Q338 102 350 80Z"/>
    <path d="M335 58 Q375 38 415 55 Q450 78 442 112 Q432 150 398 158 Q358 162 340 135 Q322 108 335 58Z"/>

    <path d="M420 580 Q445 565 470 575 Q490 590 485 615 Q478 638 455 642 Q430 644 418 622 Q408 600 420 580Z"/>
    <path d="M405 558 Q438 535 475 548 Q508 568 502 602 Q492 638 465 648 Q432 655 412 630 Q395 605 405 558Z"/>

    <!-- Long sweeping contours for realism -->
    <path d="M0 140 Q200 120 400 155 Q600 190 800 165"/>
    <path d="M0 560 Q200 545 400 575 Q600 605 800 585"/>
    <path d="M0 720 Q200 708 400 735 Q600 758 800 742"/>
  </g>
</svg>
